<svg width="65" height="24" viewBox="0 0 65 24" fill="none" xmlns="http://www.w3.org/2000/svg">
<g clip-path="url(#clip0_234_7625)">
<path d="M54.4851 4.69792C54.0255 5.05536 52.851 7.04685 51.8298 9.14047L49.9404 12.8681L48.1021 10.1617C47.1319 8.62983 45.9064 7.14898 45.4979 6.79153C44.5276 6.02558 43.0468 5.92345 42.6893 6.58728C42.5362 6.8426 42.7915 6.99579 43.251 6.94473C44.834 6.8426 44.3234 7.91494 41.9234 9.75324C40.034 11.2341 39.1659 12.4086 38.0425 15.0128C37.2766 16.8511 36.4085 18.383 36.1532 18.383C35.9489 18.383 35.7447 17.2596 35.7447 15.8809C35.7447 14.4511 35.4893 13.1745 35.1319 12.9703C34.8255 12.766 34.4681 12.8171 34.3659 13.0724C34.2638 13.3277 33.4468 14.7064 32.5276 16.0852C29.7191 20.3234 28.8 19.5575 30.5872 14.4L31.5064 11.6937L30.434 11.8469C29.7191 11.949 29.4127 12.3064 29.5149 12.9192C29.617 13.3788 29.4127 14.6043 29.1574 15.6256C28.5957 17.7192 29.2085 19.9149 30.3319 19.9149C30.7404 19.9149 31.7106 19.0979 32.4766 18.0766L33.9064 16.2383L34.6213 18.0766C35.8979 21.3447 37.6851 20.3745 40.1872 15.0639C41.5659 12.1022 44.3234 8.17026 44.9872 8.17026C45.3957 8.17026 47.234 12.4086 47.7447 14.4511C48.2553 16.4426 46.1617 18.9958 42.5872 20.732C40.2383 21.8554 39.8808 22.2128 40.5957 22.6213C41.8723 23.3362 45.4468 21.7532 48.2042 19.3022C50.9106 17.0043 52.5957 14.2979 54.6893 9.08941C56.6808 4.28941 56.6298 3.11494 54.4851 4.69792Z" fill="white"/>
<path d="M18.6385 6.63832C18.8427 7.25109 18.3321 10.8256 17.5661 14.6043C16.5959 19.4553 16.3406 21.6511 16.7491 22.0596C17.6172 22.9277 18.3321 22.0596 19.2002 18.9958C20.2214 15.4213 20.7321 14.7575 21.3959 16.3915C22.1108 18.1788 25.2257 22.417 26.5023 23.3362C28.2895 24.5617 28.3406 23.7447 26.6044 21.6C25.7363 20.5277 24.5108 18.2809 23.7959 16.5958L22.5704 13.5319L24.2044 11.4894C26.3491 8.88513 27.2172 7.25109 26.8087 6.63832C26.4002 5.92343 25.5321 5.97449 25.5321 6.68939C25.5321 7.04684 24.5108 8.42556 23.2342 9.75322L20.9363 12.2043V9.54896C20.9363 6.84258 20.3236 5.61705 18.9959 5.61705C18.5363 5.61705 18.4342 5.97449 18.6385 6.63832Z" fill="white"/>
<path d="M6.99591 10.5702C6.84272 10.8255 6.38315 12.4085 5.92357 14.1447C4.44272 19.8127 5.10655 21.1404 7.40442 16.9532C8.11932 15.5744 9.44698 14.0425 10.3151 13.5319L11.898 12.6127L11.5917 15.2681C11.1321 19.3021 12.5619 21.6 14.8597 20.4255C16.0853 19.7617 16.1363 19.3021 14.9619 19.5064C14.1448 19.6595 14.0427 19.251 14.0427 16.5447C14.0427 11.8978 12.4087 10.5702 9.49804 12.817L8.17038 13.8893L8.27251 12.2042C8.4257 10.6723 7.55761 9.65104 6.99591 10.5702Z" fill="white"/>
<path d="M56.3748 11.9489C55.9663 13.0723 56.2727 13.3276 57.1918 12.7659C57.8046 12.4084 57.8046 12.1531 57.345 11.6935C56.8344 11.1829 56.6301 11.234 56.3748 11.9489Z" fill="white"/>
<path d="M54.8939 15.2682C54.4854 16.1362 54.2811 17.1575 54.4854 17.6682C54.7407 18.332 54.996 18.0767 55.762 16.5447C56.7833 14.349 56.8854 13.7873 56.1705 13.7873C55.9152 13.7873 55.3535 14.4511 54.8939 15.2682Z" fill="white"/>
</g>
<defs>
<clipPath id="clip0_234_7625">
<rect width="64.3404" height="24" fill="white"/>
</clipPath>
</defs>
</svg>
